<?xml version="1.0" encoding="UTF-8"?>
<svg version="1.1" xmlns="http://www.w3.org/2000/svg" width="489" height="139">
<path d="M0 0 C2.49431139 1.99544911 3.62747469 4.16344769 5 7 C5.99 7.99 5.99 7.99 7 9 C7.495 9.86625 7.99 10.7325 8.5 11.625 C8.995 12.40875 9.49 13.1925 10 14 C10.66 14 11.32 14 12 14 C12.103125 14.639375 12.20625 15.27875 12.3125 15.9375 C12.539375 16.618125 12.76625 17.29875 13 18 C15.94729537 19.15811388 15.94729537 19.15811388 19 19 C19.33 18.34 19.66 17.68 20 17 C20.66 17.33 21.32 17.66 22 18 C22.33 17.34 22.66 16.68 23 16 C25.546875 15.18359375 25.546875 15.18359375 28.75 14.4375 C29.79671875 14.18871094 30.8434375 13.93992187 31.921875 13.68359375 C34.6070235 13.0872727 37.30284672 12.53943066 40 12 C40 20.91 40 29.82 40 39 C43.63 39.66 47.26 40.32 51 41 C51 41.66 51 42.32 51 43 C51.88751953 43.18175781 51.88751953 43.18175781 52.79296875 43.3671875 C57.03803585 44.26744643 61.02439661 45.20456621 65 47 C64.52517565 51.27341914 61.96922587 53.10319428 59 56 C57.7483533 58.08334635 57.7483533 58.08334635 57 60 C56 62 56 62 53.375 64.3125 C52.59125 65.199375 51.8075 66.08625 51 67 C51.04979584 69.760165 51.04979584 69.760165 52 72 C53.485 72.495 53.485 72.495 55 73 C55.6875 75.0625 55.6875 75.0625 56 77 C56.66 77 57.32 77 58 77 C58.103125 77.598125 58.20625 78.19625 58.3125 78.8125 C59.10494321 81.33391022 60.11943508 82.19465768 62 84 C63.30648871 86.3226466 64.15307428 88.45922283 65 91 C63.23141309 91.67260351 61.46003984 92.33788395 59.6875 93 C58.70136719 93.37125 57.71523437 93.7425 56.69921875 94.125 C54 95 54 95 51 95 C50.67 95.66 50.34 96.32 50 97 C48.35 97 46.7 97 45 97 C44.67 97.66 44.34 98.32 44 99 C43.34 98.67 42.68 98.34 42 98 C40.65893595 100.6821281 40.78549581 102.88398032 40.68359375 105.8828125 C40.64169922 107.04941406 40.59980469 108.21601562 40.55664062 109.41796875 C40.51732422 110.64128906 40.47800781 111.86460938 40.4375 113.125 C40.37272461 114.97158203 40.37272461 114.97158203 40.30664062 116.85546875 C40.20031296 119.90352853 40.09828219 122.9516719 40 126 C39.27699707 125.80156494 38.55399414 125.60312988 37.80908203 125.39868164 C33.72989535 124.28206129 29.65278705 123.16652731 25.5546875 122.12109375 C24.67039062 121.89550781 23.78609375 121.66992188 22.875 121.4375 C21.96492188 121.20933594 21.05484375 120.98117188 20.1171875 120.74609375 C18 120 18 120 17 118 C12.93975679 120.03802135 12.93975679 120.03802135 11 124 C9.33333333 125.66666667 7.66666667 127.33333333 6 129 C4.7483533 131.08334635 4.7483533 131.08334635 4 133 C2.89113011 135.21773977 1.9581636 136.47698387 0 138 C-2.48725307 137.84454668 -3.6922174 137.24859364 -5.625 135.6875 C-7.09105518 133.88825046 -8.05276241 132.11306846 -9 130 C-9.66 130 -10.32 130 -11 130 C-11.103125 129.401875 -11.20625 128.80375 -11.3125 128.1875 C-12.10494321 125.66608978 -13.11943508 124.80534232 -15 123 C-15.69216095 121.67972145 -16.36220264 120.34738144 -17 119 C-23.71247663 120.3185222 -30.11353322 122.23424301 -36.58984375 124.41088867 C-41.78508241 126.1074588 -41.78508241 126.1074588 -44 125 C-43.99476318 124.25314941 -43.98952637 123.50629883 -43.98413086 122.73681641 C-43.96339599 119.36621943 -43.95035101 115.99563586 -43.9375 112.625 C-43.92912109 111.449375 -43.92074219 110.27375 -43.91210938 109.0625 C-43.90888672 107.94101563 -43.90566406 106.81953125 -43.90234375 105.6640625 C-43.89710693 104.62717285 -43.89187012 103.5902832 -43.88647461 102.52197266 C-43.82859185 100.0040332 -43.82859185 100.0040332 -45 98 C-46.98 98 -48.96 98 -51 98 C-51 97.34 -51 96.68 -51 96 C-51.556875 95.89042969 -52.11375 95.78085938 -52.6875 95.66796875 C-58.03341031 94.55724752 -62.93063816 93.02774474 -68 91 C-66.00096842 85.3360772 -62.83767044 80.89308798 -58.875 76.4375 C-56.53519639 73.77863226 -55.04176573 71.43782691 -54 68 C-54.66 68 -55.32 68 -56 68 C-56.103125 67.401875 -56.20625 66.80375 -56.3125 66.1875 C-57.10494321 63.66608978 -58.11943508 62.80534232 -60 61 C-61.1875 58.8125 -61.1875 58.8125 -62 57 C-62.66 57 -63.32 57 -64 57 C-64.495 55.515 -64.495 55.515 -65 54 C-65.33 53.34 -65.66 52.68 -66 52 C-67 50 -67 50 -68 47 C-65.53917586 44.53917586 -63.93312526 44.33831362 -60.5625 43.5625 C-54.65077664 42.18493464 -48.87702714 40.60282558 -43 39 C-43 30.09 -43 21.18 -43 12 C-40.36 12.33 -37.72 12.66 -35 13 C-35 13.66 -35 14.32 -35 15 C-34.38125 14.79375 -33.7625 14.5875 -33.125 14.375 C-32.073125 14.189375 -32.073125 14.189375 -31 14 C-30.34 14.66 -29.68 15.32 -29 16 C-26.94589379 16.93420874 -26.94589379 16.93420874 -24.625 17.6875 C-23.46871094 18.09548828 -23.46871094 18.09548828 -22.2890625 18.51171875 C-19.75002366 19.0533226 -18.37893002 19.03226699 -16 18 C-15.505 16.515 -15.505 16.515 -15 15 C-13.66666667 13.66666667 -12.33333333 12.33333333 -11 11 C-11 10.34 -11 9.68 -11 9 C-10.02149805 7.97895449 -9.02019573 6.9793879 -8 6 C-7.67 5.34 -7.34 4.68 -7 4 C-3.47058824 0 -3.47058824 0 0 0 Z " fill="#9F56ED" transform="translate(68,0)"/>
<path d="M0 0 C8.50294914 1.63445578 16.57006043 4.41190982 24.75 7.1875 C26.21981755 7.68250252 27.68978946 8.17704691 29.15991211 8.67114258 C32.07785888 9.65236748 34.99505538 10.63577169 37.91162109 11.62109375 C43.45639228 13.49313978 49.00923041 15.34084566 54.5625 17.1875 C56.23051492 17.74335104 57.89848931 18.29932377 59.56640625 18.85546875 C60.69949219 19.23316406 61.83257812 19.61085938 63 20 C63 20.66 63 21.32 63 22 C52.605 25.465 52.605 25.465 42 29 C42 36.92 42 44.84 42 53 C43.4025 51.040625 44.805 49.08125 46.25 47.0625 C46.72590576 46.39790771 47.20181152 45.73331543 47.69213867 45.04858398 C50.24723904 41.47376761 52.7837636 37.88690446 55.30078125 34.28515625 C55.84379883 33.50970459 56.38681641 32.73425293 56.94628906 31.93530273 C58.0174061 30.40418785 59.08580192 28.87116541 60.15136719 27.33618164 C60.88274902 26.29192017 60.88274902 26.29192017 61.62890625 25.2265625 C62.06275635 24.60346191 62.49660645 23.98036133 62.94360352 23.33837891 C63.29221436 22.89671387 63.6408252 22.45504883 64 22 C64.33 22 64.66 22 65 22 C65 30.25 65 38.5 65 47 C71.94299426 49.10013301 71.94299426 49.10013301 78.94140625 51 C88.5540389 53.65462131 93.52774123 57.53286319 99 66 C99.69222656 67.04285156 100.38445312 68.08570312 101.09765625 69.16015625 C102.77773812 71.74875158 104.40938836 74.35579995 106 77 C91.31588229 74.29251626 91.31588229 74.29251626 85 72 C84.67 71.34 84.34 70.68 84 70 C79.93975679 72.03802135 79.93975679 72.03802135 78 76 C76.33333333 77.66666667 74.66666667 79.33333333 73 81 C71.7483533 83.08334635 71.7483533 83.08334635 71 85 C69.89113011 87.21773977 68.9581636 88.47698387 67 90 C64.51274693 89.84454668 63.3077826 89.24859364 61.375 87.6875 C59.90894482 85.88825046 58.94723759 84.11306846 58 82 C57.34 82 56.68 82 56 82 C55.8453125 81.1028125 55.8453125 81.1028125 55.6875 80.1875 C54.89505679 77.66608978 53.88056492 76.80534232 52 75 C51.30783905 73.67972145 50.63779736 72.34738144 50 71 C43.28752337 72.3185222 36.88646678 74.23424301 30.41015625 76.41088867 C25.21491759 78.1074588 25.21491759 78.1074588 23 77 C23.00523682 76.25314941 23.01047363 75.50629883 23.01586914 74.73681641 C23.03660401 71.36621943 23.04964899 67.99563586 23.0625 64.625 C23.07087891 63.449375 23.07925781 62.27375 23.08789062 61.0625 C23.09111328 59.94101563 23.09433594 58.81953125 23.09765625 57.6640625 C23.10289307 56.62717285 23.10812988 55.5902832 23.11352539 54.52197266 C23.17140815 52.0040332 23.17140815 52.0040332 22 50 C20.02 50 18.04 50 16 50 C16 49.34 16 48.68 16 48 C15.443125 47.89042969 14.88625 47.78085938 14.3125 47.66796875 C8.96658969 46.55724752 4.06936184 45.02774474 -1 43 C0.99903158 37.3360772 4.16232956 32.89308798 8.125 28.4375 C10.46480361 25.77863226 11.95823427 23.43782691 13 20 C12.34 20 11.68 20 11 20 C10.896875 19.401875 10.79375 18.80375 10.6875 18.1875 C9.89505679 15.66608978 8.88056492 14.80534232 7 13 C5.8125 10.8125 5.8125 10.8125 5 9 C4.34 9 3.68 9 3 9 C2.67 8.01 2.34 7.02 2 6 C1.649375 5.319375 1.29875 4.63875 0.9375 3.9375 C-0 2 -0 2 0 0 Z " fill="#B982F5" transform="translate(1,48)"/>
<path d="M0 0 C0.74886475 0.00523682 1.49772949 0.01047363 2.26928711 0.01586914 C3.07817383 0.0190918 3.88706055 0.02231445 4.72045898 0.02563477 C5.5705957 0.03401367 6.42073242 0.04239258 7.29663086 0.05102539 C8.15063477 0.05553711 9.00463867 0.06004883 9.88452148 0.06469727 C12.00108749 0.07652166 14.11761771 0.0944577 16.23413086 0.11352539 C19.57296943 7.20916288 22.22356572 14.47500329 24.78100586 21.88305664 C25.19707092 23.08161789 25.61313599 24.28017914 26.04180908 25.51506042 C26.91443042 28.03312683 27.78534023 30.55171077 28.65356445 33.07128906 C29.76520591 36.2959807 30.88613299 39.51735912 32.00950241 42.73798084 C33.08484472 45.82604471 34.15117006 48.9172181 35.21850586 52.00805664 C35.62155945 53.16223587 36.02461304 54.3164151 36.43988037 55.50556946 C36.99110565 57.11325447 36.99110565 57.11325447 37.5534668 58.75341797 C38.04166901 60.16497917 38.04166901 60.16497917 38.53973389 61.60505676 C39.23413086 64.11352539 39.23413086 64.11352539 39.23413086 68.11352539 C34.28413086 68.11352539 29.33413086 68.11352539 24.23413086 68.11352539 C22.11711316 62.99170838 20.32340439 58.55989306 19.23413086 53.11352539 C11.31413086 53.11352539 3.39413086 53.11352539 -4.76586914 53.11352539 C-5.42586914 56.08352539 -6.08586914 59.05352539 -6.76586914 62.11352539 C-7.75586914 65.08352539 -7.75586914 65.08352539 -8.76586914 68.11352539 C-17.18086914 68.60852539 -17.18086914 68.60852539 -25.76586914 69.11352539 C-25.43586914 66.80352539 -25.10586914 64.49352539 -24.76586914 62.11352539 C-24.10586914 62.11352539 -23.44586914 62.11352539 -22.76586914 62.11352539 C-22.53899414 60.91727539 -22.31211914 59.72102539 -22.07836914 58.48852539 C-20.84842808 52.85054741 -18.81945598 47.53893787 -16.78930664 42.15258789 C-15.60629425 39.17413365 -15.60629425 39.17413365 -15.76586914 36.11352539 C-15.10586914 36.11352539 -14.44586914 36.11352539 -13.76586914 36.11352539 C-13.5299707 34.90696289 -13.29407227 33.70040039 -13.05102539 32.45727539 C-11.61649203 26.00629894 -9.39299293 19.83994374 -7.20336914 13.61352539 C-6.79151367 12.42243164 -6.3796582 11.23133789 -5.95532227 10.00415039 C-2.52299832 0.16220022 -2.52299832 0.16220022 0 0 Z M7.23413086 18.11352539 C4.03837024 25.64396132 1.569295 33.27404577 -0.76586914 41.11352539 C4.51413086 41.11352539 9.79413086 41.11352539 15.23413086 41.11352539 C14.28195194 37.84078463 13.32269306 34.57041435 12.35913086 31.30102539 C12.0897168 30.37225586 11.82030273 29.44348633 11.54272461 28.48657227 C11.2784668 27.59389648 11.01420898 26.7012207 10.74194336 25.78149414 C10.5010498 24.95931396 10.26015625 24.13713379 10.01196289 23.29003906 C9.24558353 20.86817403 9.24558353 20.86817403 7.23413086 18.11352539 Z " fill="#000000" transform="translate(330.765869140625,34.886474609375)"/>
<path d="M0 0 C6.27 0 12.54 0 19 0 C31.56373742 35.66289727 31.56373742 35.66289727 37.1585083 51.80264282 C37.80467353 53.66494346 38.45383237 55.52620453 39.10302734 57.38745117 C39.48797363 58.50095947 39.87291992 59.61446777 40.26953125 60.76171875 C40.77383667 62.215177 40.77383667 62.215177 41.28833008 63.69799805 C42 66 42 66 42 68 C34.08 68.495 34.08 68.495 26 69 C24.35 64.05 22.7 59.1 21 54 C13.41 54 5.82 54 -2 54 C-3.65 58.62 -5.3 63.24 -7 68 C-12.28 68 -17.56 68 -23 68 C-20.87056137 59.84960973 -18.35558735 51.91844424 -15.5859375 43.96484375 C-15.17082916 42.76436905 -14.75572083 41.56389435 -14.32803345 40.32704163 C-13.4573478 37.8112574 -12.58536848 35.29597372 -11.7109375 32.78149414 C-10.59002026 29.55807417 -9.47354048 26.33313927 -8.35857201 23.10765743 C-7.2901919 20.01780903 -6.21932376 16.9288243 -5.1484375 13.83984375 C-4.74740814 12.68161606 -4.34637878 11.52338837 -3.93319702 10.33006287 C-3.56256134 9.26457718 -3.19192566 8.19909149 -2.81005859 7.10131836 C-2.48379486 6.16186874 -2.15753113 5.22241913 -1.82138062 4.25450134 C-1 2 -1 2 0 0 Z M9 17 C7.82599412 20.43503772 6.66206791 23.87340714 5.5 27.3125 C5.16613281 28.28896484 4.83226562 29.26542969 4.48828125 30.27148438 C4.17246094 31.20927734 3.85664063 32.14707031 3.53125 33.11328125 C3.23798828 33.97735596 2.94472656 34.84143066 2.64257812 35.73168945 C1.86372028 38.08814103 1.86372028 38.08814103 2 41 C6.95 41 11.9 41 17 41 C15.40554307 32.73781407 12.73981931 24.93711014 10 17 C9.67 17 9.34 17 9 17 Z " fill="#14AFBC" transform="translate(418,35)"/>
<path d="M0 0 C3.69839927 2.79040903 6.43936864 5.08433378 7.47265625 9.859375 C7.73648062 12.0741112 7.90254833 14.24771587 7.95703125 16.4765625 C3.24358025 16.81683837 -1.34140404 17.02680356 -6.04296875 16.4765625 C-8.73046875 13.5390625 -8.73046875 13.5390625 -10.04296875 10.4765625 C-15.37943741 8.69773961 -19.99555351 9.02933087 -25.04296875 11.4765625 C-25.37296875 13.7865625 -25.70296875 16.0965625 -26.04296875 18.4765625 C-22.31133183 21.94738609 -18.09632831 22.67634508 -13.29296875 23.8515625 C-4.48188264 26.15910266 2.72477724 28.52353641 7.95703125 36.4765625 C9.82498458 42.08042248 9.69238992 48.18397371 7.89453125 53.7890625 C2.97240316 60.61653049 -1.8696281 63.28759567 -10.1328125 65.0078125 C-18.72787273 66.39225173 -27.91622287 65.65104355 -35.484375 60.96484375 C-39.92225171 57.3279098 -42.44075818 53.98416134 -44.04296875 48.4765625 C-44.04296875 46.4965625 -44.04296875 44.5165625 -44.04296875 42.4765625 C-39.42296875 42.4765625 -34.80296875 42.4765625 -30.04296875 42.4765625 C-29.48609375 43.5903125 -28.92921875 44.7040625 -28.35546875 45.8515625 C-26.94206635 48.28931228 -26.20842829 49.37085224 -23.79296875 50.9140625 C-17.67044629 52.16639664 -12.82244914 51.78835466 -7.04296875 49.4765625 C-7.04296875 46.5065625 -7.04296875 43.5365625 -7.04296875 40.4765625 C-12.3619071 38.64244583 -17.66564461 37.04203262 -23.10546875 35.6015625 C-30.24719051 33.5676741 -35.35522207 31.23150285 -40.54296875 25.9140625 C-43.0503548 20.16796948 -43.31741299 14.05322861 -41.1953125 8.09765625 C-38.0886664 2.54781729 -33.28875283 -1.04456889 -27.3046875 -3.12890625 C-18.19854699 -4.71736945 -8.05273597 -4.91120865 0 0 Z " fill="#000001" transform="translate(293.04296875,38.5234375)"/>
<path d="M0 0 C6.28811052 1.47168544 12.52141724 3.07541234 18.6875 5 C19.68136719 5.309375 20.67523438 5.61875 21.69921875 5.9375 C22.45847656 6.288125 23.21773437 6.63875 24 7 C24.495 8.485 24.495 8.485 25 10 C24.02783203 11.88525391 24.02783203 11.88525391 22.5078125 13.9765625 C21.96769531 14.729375 21.42757812 15.4821875 20.87109375 16.2578125 C20.29488281 17.03898437 19.71867187 17.82015625 19.125 18.625 C18.55652344 19.41390625 17.98804688 20.2028125 17.40234375 21.015625 C13.26547943 26.73452057 13.26547943 26.73452057 12 28 C11.91262355 29.85369611 11.89301847 31.71067541 11.90234375 33.56640625 C11.90717773 35.2534668 11.90717773 35.2534668 11.91210938 36.97460938 C11.92048828 38.15861328 11.92886719 39.34261719 11.9375 40.5625 C11.94201172 41.75037109 11.94652344 42.93824219 11.95117188 44.16210938 C11.96300325 47.10812226 11.97948713 50.05403681 12 53 C12.66386719 52.13117188 13.32773437 51.26234375 14.01171875 50.3671875 C14.90357967 49.2030743 15.7955105 48.03901467 16.6875 46.875 C17.12255859 46.30523437 17.55761719 45.73546875 18.00585938 45.1484375 C18.89276057 43.99218113 19.78796872 42.8422543 20.69091797 41.69848633 C21.91147896 40.11485282 23.04761469 38.4671347 24.17578125 36.81640625 C28.12080817 32.88229227 32.25095781 31.67620142 37.5 30.0625 C38.43714844 29.74732422 39.37429687 29.43214844 40.33984375 29.10742188 C48.56408814 26.46516463 48.56408814 26.46516463 53 28 C54.8527832 29.81005859 54.8527832 29.81005859 56.55078125 32.1484375 C57.16630859 32.98890625 57.78183594 33.829375 58.41601562 34.6953125 C59.04185547 35.57960937 59.66769531 36.46390625 60.3125 37.375 C60.95767578 38.2515625 61.60285156 39.128125 62.26757812 40.03125 C67 46.58152282 67 46.58152282 67 50 C66.34 50.99 65.68 51.98 65 53 C64.505 53.99 64.505 53.99 64 55 C63.195625 55.78375 62.39125 56.5675 61.5625 57.375 C59.35364427 59.63773026 58.18183848 61.14389034 57 64 C55.89113011 66.21773977 54.9581636 67.47698387 53 69 C50.51274693 68.84454668 49.3077826 68.24859364 47.375 66.6875 C45.90894482 64.88825046 44.94723759 63.11306846 44 61 C43.34 61 42.68 61 42 61 C41.896875 60.401875 41.79375 59.80375 41.6875 59.1875 C40.89505679 56.66608978 39.88056492 55.80534232 38 54 C37.30783905 52.67972145 36.63779736 51.34738144 36 50 C29.28752337 51.3185222 22.88646678 53.23424301 16.41015625 55.41088867 C11.21491759 57.1074588 11.21491759 57.1074588 9 56 C9.00523682 55.25314941 9.01047363 54.50629883 9.01586914 53.73681641 C9.03660401 50.36621943 9.04964899 46.99563586 9.0625 43.625 C9.07087891 42.449375 9.07925781 41.27375 9.08789062 40.0625 C9.09111328 38.94101563 9.09433594 37.81953125 9.09765625 36.6640625 C9.10289307 35.62717285 9.10812988 34.5902832 9.11352539 33.52197266 C9.17140815 31.0040332 9.17140815 31.0040332 8 29 C6.02 29 4.04 29 2 29 C2 28.34 2 27.68 2 27 C1.1646875 26.83564453 1.1646875 26.83564453 0.3125 26.66796875 C-5.03341031 25.55724752 -9.93063816 24.02774474 -15 22 C-12.75033661 15.62595373 -8.89175615 10.71323108 -4.46484375 5.7109375 C-2.88669675 3.8676618 -1.43778595 1.95402363 0 0 Z " fill="#9C55E7" transform="translate(15,69)"/>
<path d="M0 0 C0 22.11 0 44.22 0 67 C-4.48257373 62.51742627 -4.48257373 62.51742627 -6.40234375 59.65234375 C-6.81806641 59.04712891 -7.23378906 58.44191406 -7.66210938 57.81835938 C-8.51295934 56.5635837 -9.35931804 55.30575088 -10.20117188 54.04492188 C-15.24521167 46.74002962 -21.52705246 44.99391446 -29.75 42.375 C-31.66229929 41.76042307 -33.57380536 41.14337059 -35.484375 40.5234375 C-36.32709961 40.25450684 -37.16982422 39.98557617 -38.03808594 39.70849609 C-40 39 -40 39 -41 38 C-41.08758003 36.00035018 -41.10696576 33.9976389 -41.09765625 31.99609375 C-41.09443359 30.78115234 -41.09121094 29.56621094 -41.08789062 28.31445312 C-41.07951172 27.03505859 -41.07113281 25.75566406 -41.0625 24.4375 C-41.05798828 23.15423828 -41.05347656 21.87097656 -41.04882812 20.54882812 C-41.03699545 17.36583978 -41.02051068 14.18294238 -41 11 C-38.36 11.33 -35.72 11.66 -33 12 C-33 12.66 -33 13.32 -33 14 C-32.38125 13.79375 -31.7625 13.5875 -31.125 13.375 C-30.073125 13.189375 -30.073125 13.189375 -29 13 C-28.34 13.66 -27.68 14.32 -27 15 C-24.94589379 15.93420874 -24.94589379 15.93420874 -22.625 16.6875 C-21.46871094 17.09548828 -21.46871094 17.09548828 -20.2890625 17.51171875 C-17.75002366 18.0533226 -16.37893002 18.03226699 -14 17 C-13.67 16.01 -13.34 15.02 -13 14 C-11.66666667 12.66666667 -10.33333333 11.33333333 -9 10 C-9 9.34 -9 8.68 -9 8 C-8.02149805 6.97895449 -7.02019573 5.9793879 -6 5 C-5.67 4.34 -5.34 3.68 -5 3 C-2.34615385 0 -2.34615385 0 0 0 Z " fill="#B881F3" transform="translate(66,1)"/>
<path d="M0 0 C4.62 0 9.24 0 14 0 C15 1 15 1 15.12025452 3.17030334 C15.1169236 4.60592873 15.1169236 4.60592873 15.11352539 6.07055664 C15.11344986 7.15160172 15.11337433 8.23264679 15.11329651 9.34645081 C15.10813522 10.5224736 15.10297394 11.6984964 15.09765625 12.91015625 C15.0962413 14.10732773 15.09482635 15.30449921 15.09336853 16.53794861 C15.08774979 20.37949066 15.07519411 24.22097543 15.0625 28.0625 C15.05748741 30.65950437 15.05292409 33.25650965 15.04882812 35.85351562 C15.03862313 42.23571716 15.01905136 48.6177941 15 55 C24.24 55 33.48 55 43 55 C43 59.29 43 63.58 43 68 C28.81 68 14.62 68 0 68 C0 45.56 0 23.12 0 0 Z " fill="#000000" transform="translate(174,35)"/>
<path d="M0 0 C4.95 0 9.9 0 15 0 C15 22.44 15 44.88 15 68 C10.05 68.33 5.1 68.66 0 69 C0 46.23 0 23.46 0 0 Z " fill="#17B5A3" transform="translate(467,35)"/>
<path d="M0 0 C4.62 0 9.24 0 14 0 C14 22.44 14 44.88 14 68 C9.05 68 4.1 68 -1 68 C-1.02255338 59.28155659 -1.04091645 50.56313241 -1.05181217 41.84466648 C-1.05704041 37.79674258 -1.06413699 33.74883959 -1.07543945 29.70092773 C-1.08627043 25.79764029 -1.09227728 21.89437301 -1.09487724 17.9910717 C-1.09673111 16.49866353 -1.100351 15.00625652 -1.10573006 13.51385689 C-1.11294331 11.43051861 -1.11399083 9.34726469 -1.11352539 7.26391602 C-1.115746 6.07588882 -1.11796661 4.88786163 -1.12025452 3.66383362 C-1 1 -1 1 0 0 Z " fill="#000000" transform="translate(226,35)"/>
<path d="M0 0 C0.66 0 1.32 0 2 0 C2 8.91 2 17.82 2 27 C5.63 27.66 9.26 28.32 13 29 C13 29.66 13 30.32 13 31 C13.59167969 31.12117188 14.18335938 31.24234375 14.79296875 31.3671875 C19.03803585 32.26744643 23.02439661 33.20456621 27 35 C15.00207871 41.07356615 4.2626552 45.84031998 -9.12207031 41.62646484 C-13.82241879 39.90845996 -18.44619628 38.07661605 -23 36 C-22.40007977 32.92451292 -21.46603389 30.97063859 -19.55859375 28.49609375 C-19.06085449 27.84261963 -18.56311523 27.18914551 -18.05029297 26.51586914 C-17.51807129 25.83000732 -16.98584961 25.14414551 -16.4375 24.4375 C-15.34427215 23.0084088 -14.25182733 21.57871826 -13.16015625 20.1484375 C-12.62277832 19.44686523 -12.08540039 18.74529297 -11.53173828 18.02246094 C-8.77930132 14.38822635 -6.15366114 10.66478191 -3.5234375 6.94140625 C-2 5 -2 5 0 4 C0 2.68 0 1.36 0 0 Z " fill="#8E33E1" transform="translate(106,12)"/>
<path d="M0 0 C6.28811052 1.47168544 12.52141724 3.07541234 18.6875 5 C19.68136719 5.309375 20.67523438 5.61875 21.69921875 5.9375 C22.45847656 6.288125 23.21773437 6.63875 24 7 C24.495 8.485 24.495 8.485 25 10 C24.02783203 11.88525391 24.02783203 11.88525391 22.5078125 13.9765625 C21.96769531 14.729375 21.42757812 15.4821875 20.87109375 16.2578125 C20.29488281 17.03898437 19.71867187 17.82015625 19.125 18.625 C18.55652344 19.41390625 17.98804688 20.2028125 17.40234375 21.015625 C13.26547943 26.73452057 13.26547943 26.73452057 12 28 C11.92461001 29.97653704 11.91688678 31.95572686 11.9375 33.93359375 C11.94523437 35.13951172 11.95296875 36.34542969 11.9609375 37.58789062 C11.98693953 40.15039103 12.01298108 42.71289103 12.0390625 45.27539062 C12.04679687 46.48259766 12.05453125 47.68980469 12.0625 48.93359375 C12.07410156 50.04790771 12.08570312 51.16222168 12.09765625 52.31030273 C12 55 12 55 11 57 C10.34 56.67 9.68 56.34 9 56 C9.00523682 55.25314941 9.01047363 54.50629883 9.01586914 53.73681641 C9.03660401 50.36621943 9.04964899 46.99563586 9.0625 43.625 C9.07087891 42.449375 9.07925781 41.27375 9.08789062 40.0625 C9.09111328 38.94101563 9.09433594 37.81953125 9.09765625 36.6640625 C9.10289307 35.62717285 9.10812988 34.5902832 9.11352539 33.52197266 C9.17140815 31.0040332 9.17140815 31.0040332 8 29 C6.02 29 4.04 29 2 29 C2 28.34 2 27.68 2 27 C1.1646875 26.83564453 1.1646875 26.83564453 0.3125 26.66796875 C-5.03341031 25.55724752 -9.93063816 24.02774474 -15 22 C-12.75033661 15.62595373 -8.89175615 10.71323108 -4.46484375 5.7109375 C-2.88669675 3.8676618 -1.43778595 1.95402363 0 0 Z " fill="#B885EF" transform="translate(15,69)"/>
<path d="M0 0 C6.27 0 12.54 0 19 0 C23.125 10.625 23.125 10.625 22 14 C20.5625 15.6875 20.5625 15.6875 19 17 C18.34 17 17.68 17 17 17 C16.67 17.66 16.34 18.32 16 19 C14.35857037 20.0409066 12.69287785 21.04504326 11 22 C10.34 21.34 9.68 20.68 9 20 C8.85304688 20.61488281 8.70609375 21.22976562 8.5546875 21.86328125 C6.69278958 28.57253409 6.69278958 28.57253409 3.0625 30.8125 C2.051875 31.204375 1.04125 31.59625 0 32 C-1.37310707 33.29233607 -2.71034824 34.62437146 -4 36 C-7.64285714 39 -7.64285714 39 -10 39 C-10 39.66 -10 40.32 -10 41 C-11.98 41.495 -11.98 41.495 -14 42 C-11.69427537 32.71665178 -8.55093541 23.79892464 -5.3125 14.8125 C-4.79584618 13.36927581 -4.27956755 11.92591725 -3.76367188 10.48242188 C-2.51410857 6.98645262 -1.25692767 3.49336265 0 0 Z " fill="#11A9D2" transform="translate(418,35)"/>
<path d="M0 0 C1.42808369 4.09206747 2.85214285 8.18550604 4.27246094 12.28027344 C4.75637735 13.67356297 5.2413986 15.06646928 5.72753906 16.45898438 C6.42542506 18.4586414 7.1193484 20.45963523 7.8125 22.4609375 C8.23144531 23.66540527 8.65039062 24.86987305 9.08203125 26.11083984 C10 29 10 29 10 31 C4.72 31.33 -0.56 31.66 -6 32 C-7.2375 28.349375 -7.2375 28.349375 -8.5 24.625 C-8.76103516 23.86010254 -9.02207031 23.09520508 -9.29101562 22.30712891 C-11 17.22222222 -11 17.22222222 -11 15 C-13.31 15 -15.62 15 -18 15 C-16.11246399 12.16869598 -14.20784864 10.44874488 -11.5859375 8.33203125 C-10.08846204 7.0742994 -8.69530913 5.69530913 -7.3125 4.3125 C-3 0 -3 0 0 0 Z " fill="#18B3A3" transform="translate(450,72)"/>
<path d="M0 0 C23.58956613 4.55237241 23.58956613 4.55237241 28.59375 11.75390625 C29.0578125 12.49511719 29.521875 13.23632812 30 14 C30.77603334 15.11692388 31.55782954 16.22985468 32.34375 17.33984375 C34.59947131 20.53566676 36.80775158 23.76034401 39 27 C35.53883346 28.19941908 33.54543768 27.79283863 30.12109375 26.6015625 C29.20005859 26.28703125 28.27902344 25.9725 27.33007812 25.6484375 C26.37552734 25.31070313 25.42097656 24.97296875 24.4375 24.625 C23.47908203 24.295 22.52066406 23.965 21.53320312 23.625 C19.7554389 23.01206377 17.97914609 22.39483138 16.20483398 21.77197266 C14.47506256 21.16633239 12.73868295 20.57956098 11 20 C10.64587656 18.67203709 10.31478446 17.33783393 10 16 C9.02149805 14.97895449 8.02019573 13.9793879 7 13 C5.8125 10.8125 5.8125 10.8125 5 9 C4.34 9 3.68 9 3 9 C2.67 8.01 2.34 7.02 2 6 C1.649375 5.319375 1.29875 4.63875 0.9375 3.9375 C0 2 0 2 0 0 Z " fill="#ECE1F7" transform="translate(1,48)"/>
<path d="M0 0 C2.19882493 2.72993645 4.37527027 5.46220109 6.4375 8.296875 C7.06785156 9.14572266 7.06785156 9.14572266 7.7109375 10.01171875 C8.5778061 11.18067792 9.43708661 12.35529872 10.2890625 13.53515625 C12.76637499 16.87786089 12.76637499 16.87786089 16.3125 18.890625 C17.1478125 18.94476563 17.1478125 18.94476563 18 19 C17.67 19.99 17.34 20.98 17 22 C16.85013589 23.9906444 16.75171962 25.98535391 16.68359375 27.98046875 C16.64169922 29.14384766 16.59980469 30.30722656 16.55664062 31.50585938 C16.51732422 32.72080078 16.47800781 33.93574219 16.4375 35.1875 C16.39431641 36.41404297 16.35113281 37.64058594 16.30664062 38.90429688 C16.2004691 41.93608381 16.09842048 44.96795315 16 48 C12.53290067 46.26645033 11.11189306 42.49361292 9.14453125 39.25 C7.20718852 36.11036975 7.20718852 36.11036975 5.21606445 34.11157227 C0.03746257 28.44745595 -0.75946203 24.21418615 -0.61523438 16.61132812 C-0.55658203 15.39896484 -0.49792969 14.18660156 -0.4375 12.9375 C-0.39012695 11.06674805 -0.39012695 11.06674805 -0.34179688 9.15820312 C-0.25985597 6.1029781 -0.14518732 3.05276293 0 0 Z " fill="#8F32E4" transform="translate(92,78)"/>
<path d="M0 0 C-1 2 -1 2 -3.4375 4.375 C-5.64635573 6.63773026 -6.81816152 8.14389034 -8 11 C-10.93345168 16.86690337 -16.86114807 20.8282885 -22.9140625 22.859375 C-23.83960937 23.17003906 -24.76515625 23.48070313 -25.71875 23.80078125 C-26.6778125 24.11402344 -27.636875 24.42726563 -28.625 24.75 C-29.59179688 25.07871094 -30.55859375 25.40742187 -31.5546875 25.74609375 C-32.47765625 26.05160156 -33.400625 26.35710937 -34.3515625 26.671875 C-35.19541504 26.9512793 -36.03926758 27.23068359 -36.90869141 27.51855469 C-39 28 -39 28 -41 27 C-33.67578125 16.74609375 -33.67578125 16.74609375 -32.30688477 14.87451172 C-30.98024317 13.03636719 -30.98024317 13.03636719 -29.94116211 11.11376953 C-26.38281045 5.0988623 -21.43178478 3.83616912 -14.9375 2 C-13.94427734 1.68933594 -12.95105469 1.37867188 -11.92773438 1.05859375 C-3.93744516 -1.34118335 -3.93744516 -1.34118335 0 0 Z " fill="#EFE4FA" transform="translate(133,49)"/>
<path d="M0 0 C-0.70898438 0.66644531 -1.41796875 1.33289063 -2.1484375 2.01953125 C-5.98483082 5.85457278 -8.95287759 10.3171535 -12.0703125 14.73632812 C-12.76640625 15.70795898 -12.76640625 15.70795898 -13.4765625 16.69921875 C-13.88986816 17.28533936 -14.30317383 17.87145996 -14.72900391 18.4753418 C-18.20192672 22.64138155 -23.54238221 23.62213034 -28.5 25.1875 C-29.36753906 25.47302734 -30.23507813 25.75855469 -31.12890625 26.05273438 C-31.96292969 26.31763672 -32.79695313 26.58253906 -33.65625 26.85546875 C-34.41744141 27.09934326 -35.17863281 27.34321777 -35.96289062 27.59448242 C-38 28 -38 28 -41 27 C-38.94915774 24.07497668 -36.88233243 21.16160894 -34.8125 18.25 C-34.23435547 17.425 -33.65621094 16.6 -33.06054688 15.75 C-27.42076256 7.84792931 -22.66941885 4.49293459 -13.4375 1.6875 C-12.16229492 1.27274414 -12.16229492 1.27274414 -10.86132812 0.84960938 C-3.95794277 -1.29991532 -3.95794277 -1.29991532 0 0 Z " fill="#9032E6" transform="translate(67,97)"/>
<path d="M0 0 C3.03404562 0.58551758 6.0018541 1.25737625 9 2 C10.79244141 2.42539063 10.79244141 2.42539063 12.62109375 2.859375 C22.29659708 5.42484005 27.50896744 9.50381481 33 18 C33.69222656 19.04285156 34.38445312 20.08570313 35.09765625 21.16015625 C36.77773812 23.74875158 38.40938836 26.35579995 40 29 C25.31588229 26.29251626 25.31588229 26.29251626 19 24 C18.67 23.34 18.34 22.68 18 22 C17.3905957 21.71777588 16.78119141 21.43555176 16.15332031 21.14477539 C13.48044397 19.72378705 12.32042427 18.12689789 10.546875 15.68359375 C9.928125 14.83732422 9.309375 13.99105469 8.671875 13.11914062 C8.03765625 12.23419922 7.4034375 11.34925781 6.75 10.4375 C6.1003125 9.54869141 5.450625 8.65988281 4.78125 7.74414062 C0 1.15987723 0 1.15987723 0 0 Z " fill="#F0E5FA" transform="translate(67,96)"/>
<path d="M0 0 C-3.01618797 3.01618797 -6.6929547 3.79666274 -10.6875 5.125 C-11.47833984 5.40214844 -12.26917969 5.67929687 -13.08398438 5.96484375 C-21.85756196 8.90627439 -28.15246394 7.95000465 -36.75 5 C-38.43101909 4.43370829 -40.11326556 3.87104342 -41.796875 3.3125 C-42.53260742 3.06113281 -43.26833984 2.80976562 -44.02636719 2.55078125 C-46.14009061 1.86560052 -46.14009061 1.86560052 -49 2 C-48.34765625 0.09765625 -48.34765625 0.09765625 -47 -2 C-44.49609375 -2.94140625 -44.49609375 -2.94140625 -41.4375 -3.5625 C-37.55708831 -4.39600132 -33.99140201 -5.33053947 -30.3125 -6.8125 C-20.69203445 -10.0250178 -9.04835013 -3.30353082 0 0 Z " fill="#9133E7" transform="translate(49,47)"/>
<path d="M0 0 C3.01309292 2.14088181 4.47769134 3.62917367 6 7 C6.66 7.66 7.32 8.32 8 9 C8.495 9.86625 8.99 10.7325 9.5 11.625 C10.2425 12.800625 10.2425 12.800625 11 14 C11.66 14 12.32 14 13 14 C13.12375 14.598125 13.2475 15.19625 13.375 15.8125 C13.95475985 18.26231348 13.95475985 18.26231348 16 21 C16.13525391 23.72729492 16.13525391 23.72729492 15.9765625 26.98046875 C15.925 28.14384766 15.8734375 29.30722656 15.8203125 30.50585938 C15.75585938 31.72080078 15.69140625 32.93574219 15.625 34.1875 C15.56828125 35.41404297 15.5115625 36.64058594 15.453125 37.90429688 C15.31153051 40.93677888 15.16010492 43.96844806 15 47 C13.81197 45.82053238 12.62567925 44.63926621 11.44775391 43.44970703 C10.09194255 42.09206659 8.70895084 40.76172365 7.32421875 39.43359375 C-2.38482708 28.40124093 -0.98496402 16.41988095 -0.15869141 2.34814453 C-0.10632324 1.57325684 -0.05395508 0.79836914 0 0 Z " fill="#8F32E4" transform="translate(67,0)"/>
<path d="M0 0 C1.82345487 26.10906845 1.82345487 26.10906845 -3.38134766 33.25512695 C-5.46776203 35.62923278 -7.72338824 37.80962353 -10 40 C-10.78249128 41.08897778 -11.53871615 42.19737859 -12.265625 43.32421875 C-12.83796875 44.20722656 -13.4103125 45.09023438 -14 46 C-14.33 46 -14.66 46 -15 46 C-15.05802751 41.41671978 -15.09360593 36.83353396 -15.125 32.25 C-15.14175781 30.94804687 -15.15851562 29.64609375 -15.17578125 28.3046875 C-15.18222656 27.05429687 -15.18867187 25.80390625 -15.1953125 24.515625 C-15.20578613 23.36352539 -15.21625977 22.21142578 -15.22705078 21.02441406 C-14.8309374 15.74801342 -12.62705038 13.62705038 -9 10 C-9 9.34 -9 8.68 -9 8 C-8.02149805 6.97895449 -7.02019573 5.9793879 -6 5 C-5.67 4.34 -5.34 3.68 -5 3 C-2.34615385 0 -2.34615385 0 0 0 Z " fill="#EFE6FA" transform="translate(66,1)"/>
<path d="M0 0 C0.33 0 0.66 0 1 0 C2.90206642 27.23466488 2.90206642 27.23466488 -3.6875 34.875 C-6.32421875 37.6171875 -6.32421875 37.6171875 -9 40 C-10.6701185 41.66320767 -12.33783173 43.32884704 -14 45 C-15.82346684 19.9455656 -15.82346684 19.9455656 -10.61865234 12.81518555 C-8.52787536 10.42418105 -6.27239107 8.21730281 -4 6 C-3.21825455 4.90916245 -2.46201705 3.7995228 -1.734375 2.671875 C-1.16203125 1.79015625 -0.5896875 0.9084375 0 0 Z " fill="#F4EAFE" transform="translate(40,78)"/>
<path d="M0 0 C0 8.58 0 17.16 0 26 C-0.33 26 -0.66 26 -1 26 C-1.33 18.74 -1.66 11.48 -2 4 C-11.29784981 16.35220641 -11.29784981 16.35220641 -20.37890625 28.86328125 C-21.81441496 30.7553855 -23.30638284 32.34540491 -25 34 C-25.05783842 29.70838953 -25.0935412 25.41687855 -25.125 21.125 C-25.14175781 19.90167969 -25.15851563 18.67835937 -25.17578125 17.41796875 C-25.18222656 16.25136719 -25.18867187 15.08476562 -25.1953125 13.8828125 C-25.20578613 12.80402832 -25.21625977 11.72524414 -25.22705078 10.61376953 C-25 8 -25 8 -23 6 C-22.01 6 -21.02 6 -20 6 C-19.67 5.34 -19.34 4.68 -19 4 C-18.34 4.33 -17.68 4.66 -17 5 C-16.67 4.34 -16.34 3.68 -16 3 C-13.41796875 2.1484375 -13.41796875 2.1484375 -10.1875 1.375 C-9.12917969 1.11460938 -8.07085937 0.85421875 -6.98046875 0.5859375 C-4 0 -4 0 0 0 Z " fill="#B77FF1" transform="translate(107,13)"/>
<path d="M0 0 C8.8762709 1.92962411 17.3811192 4.71490896 25.96362305 7.66235352 C26.84445557 7.96326904 27.72528809 8.26418457 28.6328125 8.57421875 C29.42574707 8.84838623 30.21868164 9.12255371 31.03564453 9.4050293 C32.9769408 10.09662621 32.9769408 10.09662621 35 10 C35.66 8.68 36.32 7.36 37 6 C38.20628008 8.33214148 39.1654738 10.49642139 40 13 C38.23141309 13.67260351 36.46003984 14.33788395 34.6875 15 C33.70136719 15.37125 32.71523437 15.7425 31.69921875 16.125 C29 17 29 17 26 17 C25.67 17.66 25.34 18.32 25 19 C23.35 19 21.7 19 20 19 C19.67 19.66 19.34 20.32 19 21 C16.04993451 20.91817337 13.81303951 20.781493 11.61572266 18.66943359 C10.26170897 16.88794507 9.02431289 15.06855121 7.8125 13.1875 C6.96492802 11.93093274 6.11727388 10.67442089 5.26953125 9.41796875 C4.87975098 8.82419434 4.4899707 8.23041992 4.08837891 7.61865234 C3.17921158 6.26652596 2.19715265 4.96378704 1.19921875 3.67578125 C0 2 0 2 0 0 Z " fill="#9C56E8" transform="translate(93,78)"/>
<path d="M0 0 C0.33 0 0.66 0 1 0 C1.33 4.62 1.66 9.24 2 14 C2.7425 13.05125 3.485 12.1025 4.25 11.125 C6.30807743 8.64131449 7.98585501 7.24723241 11 6 C11.66 5.34 12.32 4.68 13 4 C14 5 14 5 14.11352539 7.77563477 C14.10828857 8.98533936 14.10305176 10.19504395 14.09765625 11.44140625 C14.09443359 12.74658203 14.09121094 14.05175781 14.08789062 15.39648438 C14.07953401 16.7851569 14.07106905 18.17382877 14.0625 19.5625 C14.05748666 20.95507656 14.05292347 22.34765481 14.04882812 23.74023438 C14.03699434 27.1601987 14.0205088 30.58007844 14 34 C13.15695312 34.06058594 12.31390625 34.12117188 11.4453125 34.18359375 C10.34960938 34.26738281 9.25390625 34.35117188 8.125 34.4375 C7.03445313 34.51871094 5.94390625 34.59992188 4.8203125 34.68359375 C2.05271029 34.83001703 2.05271029 34.83001703 0 36 C0 24.12 0 12.24 0 0 Z " fill="#1BBB85" transform="translate(467,68)"/>
<path d="M0 0 C16.53703704 3.87037037 16.53703704 3.87037037 24 7 C24.495 7.99 24.495 7.99 25 9 C19.94693234 10.69260258 14.89320776 12.38322379 9.83886719 14.07202148 C8.11993555 14.64667375 6.40118389 15.2218647 4.68261719 15.79760742 C2.21075943 16.62560833 -0.26174152 17.45166269 -2.734375 18.27734375 C-3.88459137 18.66332985 -3.88459137 18.66332985 -5.05804443 19.05711365 C-8.3520076 20.15521648 -11.62425514 21.18898194 -15 22 C-12.75033661 15.62595373 -8.89175615 10.71323108 -4.46484375 5.7109375 C-2.88669675 3.8676618 -1.43778595 1.95402363 0 0 Z " fill="#9E56EA" transform="translate(15,69)"/>
<path d="M0 0 C1.125 2.0625 1.125 2.0625 2 4 C2.66 4 3.32 4 4 4 C4.33 5.32 4.66 6.64 5 8 C5.66 8 6.32 8 7 8 C7.12375 8.598125 7.2475 9.19625 7.375 9.8125 C7.95475985 12.26231348 7.95475985 12.26231348 10 15 C9.625 17.6875 9.625 17.6875 9 20 C1.41306916 17.97484027 -6.12424185 15.82432154 -13.625 13.5 C-14.61628906 13.20480469 -15.60757813 12.90960938 -16.62890625 12.60546875 C-17.56863281 12.31285156 -18.50835937 12.02023438 -19.4765625 11.71875 C-20.32299316 11.46029297 -21.16942383 11.20183594 -22.04150391 10.93554688 C-22.68780762 10.62681641 -23.33411133 10.31808594 -24 10 C-24.33 9.01 -24.66 8.02 -25 7 C-21.21261434 5.63364215 -17.41948537 4.28400281 -13.625 2.9375 C-12.54476562 2.54755859 -11.46453125 2.15761719 -10.3515625 1.75585938 C-9.3203125 1.39169922 -8.2890625 1.02753906 -7.2265625 0.65234375 C-6.27346191 0.31195068 -5.32036133 -0.02844238 -4.33837891 -0.37915039 C-2 -1 -2 -1 0 0 Z " fill="#B681F0" transform="translate(119,69)"/>
<path d="M0 0 C0.33 0 0.66 0 1 0 C1.33 7.92 1.66 15.84 2 24 C4.413125 20.8753125 4.413125 20.8753125 6.875 17.6875 C7.3788623 17.03612061 7.88272461 16.38474121 8.40185547 15.71362305 C10.35049521 13.18524537 12.22862438 10.65706342 14 8 C14.66 8 15.32 8 16 8 C16 20.87 16 33.74 16 47 C11.51366373 42.51366373 11.51366373 42.51366373 9.59765625 39.6875 C9.18193359 39.08679687 8.76621094 38.48609375 8.33789062 37.8671875 C7.48887097 36.62421232 6.64250511 35.37942022 5.79882812 34.1328125 C3.22739923 30.42868309 0.71634587 27.65928148 -3 25 C-2.01 25 -1.02 25 0 25 C0 16.75 0 8.5 0 0 Z " fill="#B981F5" transform="translate(50,21)"/>
<path d="M0 0 C4.39517824 3.15409373 7.20919886 6.6788301 10.25 11.0625 C10.91902344 11.99932617 10.91902344 11.99932617 11.6015625 12.95507812 C13.47318032 15.61220828 14.96671893 17.90015678 16 21 C7.14331551 19.60880098 -1.17467436 16.76278072 -9.625 13.875 C-11.02454925 13.40178045 -12.42428767 12.92912003 -13.82421875 12.45703125 C-17.21834868 11.31111799 -20.60986448 10.15768504 -24 9 C-21.29739858 7.58476842 -18.64177758 6.47128322 -15.7421875 5.52734375 C-14.95199219 5.26759766 -14.16179688 5.00785156 -13.34765625 4.74023438 C-12.53167969 4.47533203 -11.71570312 4.21042969 -10.875 3.9375 C-9.24695903 3.40628475 -7.61933392 2.87379278 -5.9921875 2.33984375 C-5.27401855 2.10644287 -4.55584961 1.87304199 -3.81591797 1.63256836 C-1.93471874 1.02073181 -1.93471874 1.02073181 0 0 Z " fill="#9E56ED" transform="translate(49,47)"/>
<path d="M0 0 C5.7926463 0.61425377 10.94609066 2.15533044 16.4375 4.0625 C17.26443359 4.34416016 18.09136719 4.62582031 18.94335938 4.91601562 C20.96412338 5.60517792 22.98233282 6.3018231 25 7 C24 9 24 9 20.81298828 10.23681641 C19.40139461 10.69983303 17.98692666 11.15414166 16.5703125 11.6015625 C15.82417694 11.8428891 15.07804138 12.0842157 14.30929565 12.33285522 C12.72835405 12.84238147 11.14621012 13.34818971 9.56298828 13.85058594 C7.13923432 14.62047854 4.71983954 15.40299383 2.30078125 16.1875 C0.76586767 16.68044375 -0.7692812 17.17265559 -2.3046875 17.6640625 C-3.02977509 17.89839996 -3.75486267 18.13273743 -4.50192261 18.37417603 C-7.44943143 19.30455075 -9.88883683 20 -13 20 C-11.40013936 15.03657693 -8.47460168 11.29801238 -5.375 7.1875 C-4.6015625 6.14819336 -4.6015625 6.14819336 -3.8125 5.08789062 C-2.54657074 3.38826337 -1.27394735 1.69362565 0 0 Z " fill="#BA83F6" transform="translate(81,48)"/>
<path d="M0 0 C1.98 0 3.96 0 6 0 C6 0.66 6 1.32 6 2 C6.928125 1.690625 6.928125 1.690625 7.875 1.375 C8.57625 1.25125 9.2775 1.1275 10 1 C10.66 1.66 11.32 2.32 12 3 C15.96 4.32 19.92 5.64 24 7 C23.67 15.58 23.34 24.16 23 33 C20.32485648 30.32485648 18.32182344 28.24415047 16.23046875 25.2421875 C15.49038574 24.18656616 15.49038574 24.18656616 14.73535156 23.10961914 C14.22456055 22.37219482 13.71376953 21.63477051 13.1875 20.875 C12.65995117 20.11888428 12.13240234 19.36276855 11.58886719 18.58374023 C10.53952865 17.07969905 9.49148153 15.57475593 8.44482422 14.06884766 C7.19558294 12.28005573 5.93383971 10.50188762 4.66015625 8.73046875 C4.02980469 7.85003906 3.39945313 6.96960938 2.75 6.0625 C1.93789063 4.93521484 1.93789063 4.93521484 1.109375 3.78515625 C0 2 0 2 0 0 Z " fill="#9C55E8" transform="translate(27,13)"/>
<path d="M0 0 C-1.31310772 2.75844074 -2.77058503 5.23329338 -4.5390625 7.72265625 C-5.03365967 8.42140869 -5.52825684 9.12016113 -6.0378418 9.84008789 C-6.82348511 10.94018188 -6.82348511 10.94018188 -7.625 12.0625 C-8.15971924 12.8145874 -8.69443848 13.5666748 -9.24536133 14.34155273 C-10.82714117 16.56326574 -12.41330913 18.78179291 -14 21 C-14.65766357 21.92425781 -14.65766357 21.92425781 -15.32861328 22.8671875 C-20.23472388 29.76075933 -20.23472388 29.76075933 -22 32 C-22.33 32 -22.66 32 -23 32 C-23 23.75 -23 15.5 -23 7 C-5.5 0 -5.5 0 0 0 Z " fill="#9E56ED" transform="translate(65,70)"/>
<path d="M0 0 C2.52282636 0.59663481 5.0430122 1.20205141 7.5625 1.8125 C8.26697266 1.97814453 8.97144531 2.14378906 9.69726562 2.31445312 C10.39658203 2.48525391 11.09589844 2.65605469 11.81640625 2.83203125 C12.76688843 3.05983276 12.76688843 3.05983276 13.73657227 3.29223633 C16.91096598 4.28485496 19.94295248 5.68983678 23 7 C23 15.25 23 23.5 23 32 C19.23010673 28.23010673 16.18036065 24.6962938 13.1875 20.375 C12.31961342 19.13759768 11.45111504 17.90062426 10.58203125 16.6640625 C10.15229004 16.05079102 9.72254883 15.43751953 9.27978516 14.80566406 C8.06479372 13.09141823 6.82712789 11.39760532 5.57421875 9.7109375 C4.84847656 8.73382813 4.12273437 7.75671875 3.375 6.75 C2.72273438 5.87859375 2.07046875 5.0071875 1.3984375 4.109375 C0 2 0 2 0 0 Z " fill="#BA84F6" transform="translate(68,70)"/>
<path d="M0 0 C0.33 0 0.66 0 1 0 C1.33 7.92 1.66 15.84 2 24 C-1.58875 25.155 -5.1775 26.31 -8.875 27.5 C-10.00534668 27.86544922 -11.13569336 28.23089844 -12.30029297 28.60742188 C-13.18861816 28.89166016 -14.07694336 29.17589844 -14.9921875 29.46875 C-16.35899658 29.90864258 -16.35899658 29.90864258 -17.75341797 30.35742188 C-20 31 -20 31 -22 31 C-20.636765 28.11103851 -19.07999743 25.57381906 -17.20703125 22.98828125 C-16.66208008 22.23401855 -16.11712891 21.47975586 -15.55566406 20.70263672 C-14.98041992 19.9138916 -14.40517578 19.12514648 -13.8125 18.3125 C-13.22823242 17.50828613 -12.64396484 16.70407227 -12.04199219 15.87548828 C-2.79105042 3.18179748 -2.79105042 3.18179748 0 0 Z " fill="#9E56ED" transform="translate(105,16)"/>
<path d="M0 0 C4.62 0 9.24 0 14 0 C14 3.3 14 6.6 14 10 C13.01 10.33 12.02 10.66 11 11 C10.67 11.66 10.34 12.32 10 13 C7.9375 14.125 7.9375 14.125 6 15 C6 15.66 6 16.32 6 17 C5.34 17 4.68 17 4 17 C4 17.66 4 18.32 4 19 C3.34 19.33 2.68 19.66 2 20 C1.53045739 23.04581269 1.53045739 23.04581269 1.375 26.5625 C1.30023438 27.76003906 1.22546875 28.95757812 1.1484375 30.19140625 C1.09945313 31.11824219 1.05046875 32.04507813 1 33 C0.67 33 0.34 33 0 33 C0 22.11 0 11.22 0 0 Z " fill="#15B1B4" transform="translate(467,35)"/>
<path d="M0 0 C2 1 2 1 3.2890625 4.30859375 C3.74210268 5.68237148 4.18708349 7.05882681 4.625 8.4375 C4.96917969 9.47874023 4.96917969 9.47874023 5.3203125 10.54101562 C7 15.70505487 7 15.70505487 7 18 C1.72 18.33 -3.56 18.66 -9 19 C-11.17647059 11.74509804 -11.17647059 11.74509804 -10.4375 8.625 C-8.5536543 6.4954353 -6.68041765 5.84644768 -4 5 C-4 4.34 -4 3.68 -4 3 C-2 1.375 -2 1.375 0 0 Z " fill="#1AB593" transform="translate(453,85)"/>
<path d="M0 0 C0.33 0 0.66 0 1 0 C1 22.44 1 44.88 1 68 C-3.29 68 -7.58 68 -12 68 C-12 67.67 -12 67.34 -12 67 C-8.04 67 -4.08 67 0 67 C-0.33 57.43 -0.66 47.86 -1 38 C-5 39.5 -5 39.5 -6 42 C-10.53488372 46.76744186 -10.53488372 46.76744186 -13 48 C-13.08121924 46.39667209 -13.13929134 44.79215974 -13.1875 43.1875 C-13.23970703 41.84751953 -13.23970703 41.84751953 -13.29296875 40.48046875 C-13 38 -13 38 -11.61328125 36.17578125 C-10 35 -10 35 -8 35 C-7.67 34.34 -7.34 33.68 -7 33 C-6.67 32.34 -6.34 31.68 -6 31 C-5.34 31 -4.68 31 -4 31 C-3.34 29.68 -2.68 28.36 -2 27 C-1.67 27 -1.34 27 -1 27 C-0.67 18.09 -0.34 9.18 0 0 Z " fill="#1AB896" transform="translate(481,35)"/>
<path d="M0 0 C5.28 0 10.56 0 16 0 C14.71563539 2.56872921 13.14692413 4.09843863 11 6 C10.29875 6.165 9.5975 6.33 8.875 6.5 C8.25625 6.665 7.6375 6.83 7 7 C6.72542969 7.59296875 6.45085937 8.1859375 6.16796875 8.796875 C4.69902355 11.56772815 2.93502615 12.87384873 0.4375 14.75 C-0.77099609 15.67039062 -0.77099609 15.67039062 -2.00390625 16.609375 C-4 18 -4 18 -5 18 C-4.50509874 11.31883293 -2.65105931 6.15729904 0 0 Z " fill="#0FA7E0" transform="translate(418,36)"/>
<path d="M0 0 C0.66 0 1.32 0 2 0 C2.15596431 8.842628 2.30407372 17.68534655 2.4429636 26.52825928 C2.50773028 30.63723813 2.5749047 34.74614408 2.64819336 38.85498047 C2.9809528 57.61151344 3.11099793 76.26016425 2 95 C1.67 95 1.34 95 1 95 C1 86.75 1 78.5 1 70 C0.34 70 -0.32 70 -1 70 C-1 69.34 -1 68.68 -1 68 C-0.34 68 0.32 68 1 68 C0.96970703 66.93491211 0.93941406 65.86982422 0.90820312 64.77246094 C0.30056016 43.17614216 -0.17714752 21.60654689 0 0 Z " fill="#AB69F1" transform="translate(65,0)"/>
<path d="M0 0 C1.20628008 2.33214148 2.1654738 4.49642139 3 7 C1.125 7.625 1.125 7.625 -1 8 C-1.66 7.34 -2.32 6.68 -3 6 C-2.01 4.02 -1.02 2.04 0 0 Z " fill="#9361C8" transform="translate(130,84)"/>
<path d="M0 0 C1.98 0 3.96 0 6 0 C5.34 1.32 4.68 2.64 4 4 C2.35 4 0.7 4 -1 4 C-0.67 2.68 -0.34 1.36 0 0 Z " fill="#7C39BB" transform="translate(1,45)"/>
<path d="" fill="#201928" transform="translate(0,0)"/>
<path d="" fill="#201928" transform="translate(0,0)"/>
<path d="" fill="#201928" transform="translate(0,0)"/>
<path d="" fill="#201928" transform="translate(0,0)"/>
<path d="" fill="#201928" transform="translate(0,0)"/>
<path d="" fill="#201928" transform="translate(0,0)"/>
<path d="" fill="#201928" transform="translate(0,0)"/>
<path d="" fill="#201928" transform="translate(0,0)"/>
<path d="" fill="#201928" transform="translate(0,0)"/>
<path d="" fill="#201928" transform="translate(0,0)"/>
<path d="" fill="#201928" transform="translate(0,0)"/>
<path d="" fill="#201928" transform="translate(0,0)"/>
<path d="" fill="#201928" transform="translate(0,0)"/>
<path d="" fill="#201928" transform="translate(0,0)"/>
<path d="" fill="#201928" transform="translate(0,0)"/>
<path d="" fill="#201928" transform="translate(0,0)"/>
<path d="" fill="#201928" transform="translate(0,0)"/>
<path d="" fill="#201928" transform="translate(0,0)"/>
<path d="" fill="#201928" transform="translate(0,0)"/>
<path d="" fill="#201928" transform="translate(0,0)"/>
<path d="" fill="#201928" transform="translate(0,0)"/>
<path d="" fill="#201928" transform="translate(0,0)"/>
<path d="" fill="#201928" transform="translate(0,0)"/>
<path d="" fill="#201928" transform="translate(0,0)"/>
<path d="" fill="#201928" transform="translate(0,0)"/>
<path d="" fill="#201928" transform="translate(0,0)"/>
<path d="" fill="#201928" transform="translate(0,0)"/>
<path d="" fill="#201928" transform="translate(0,0)"/>
<path d="" fill="#201928" transform="translate(0,0)"/>
<path d="" fill="#201928" transform="translate(0,0)"/>
<path d="" fill="#201928" transform="translate(0,0)"/>
<path d="" fill="#201928" transform="translate(0,0)"/>
<path d="" fill="#201928" transform="translate(0,0)"/>
<path d="" fill="#201928" transform="translate(0,0)"/>
<path d="" fill="#201928" transform="translate(0,0)"/>
<path d="" fill="#201928" transform="translate(0,0)"/>
<path d="" fill="#201928" transform="translate(0,0)"/>
<path d="" fill="#201928" transform="translate(0,0)"/>
<path d="" fill="#201928" transform="translate(0,0)"/>
<path d="" fill="#201928" transform="translate(0,0)"/>
<path d="" fill="#201928" transform="translate(0,0)"/>
<path d="" fill="#201928" transform="translate(0,0)"/>
<path d="" fill="#201928" transform="translate(0,0)"/>
<path d="" fill="#201928" transform="translate(0,0)"/>
<path d="" fill="#201928" transform="translate(0,0)"/>
<path d="" fill="#201928" transform="translate(0,0)"/>
<path d="" fill="#201928" transform="translate(0,0)"/>
<path d="" fill="#201928" transform="translate(0,0)"/>
<path d="" fill="#201928" transform="translate(0,0)"/>
<path d="" fill="#201928" transform="translate(0,0)"/>
<path d="" fill="#201928" transform="translate(0,0)"/>
<path d="" fill="#201928" transform="translate(0,0)"/>
<path d="" fill="#201928" transform="translate(0,0)"/>
<path d="" fill="#201928" transform="translate(0,0)"/>
<path d="" fill="#201928" transform="translate(0,0)"/>
<path d="" fill="#201928" transform="translate(0,0)"/>
<path d="" fill="#201928" transform="translate(0,0)"/>
<path d="" fill="#201928" transform="translate(0,0)"/>
<path d="" fill="#201928" transform="translate(0,0)"/>
<path d="" fill="#201928" transform="translate(0,0)"/>
<path d="" fill="#201928" transform="translate(0,0)"/>
<path d="" fill="#201928" transform="translate(0,0)"/>
<path d="" fill="#201928" transform="translate(0,0)"/>
<path d="" fill="#201928" transform="translate(0,0)"/>
<path d="" fill="#201928" transform="translate(0,0)"/>
<path d="" fill="#201928" transform="translate(0,0)"/>
<path d="" fill="#201928" transform="translate(0,0)"/>
<path d="" fill="#201928" transform="translate(0,0)"/>
<path d="" fill="#201928" transform="translate(0,0)"/>
<path d="" fill="#201928" transform="translate(0,0)"/>
<path d="" fill="#201928" transform="translate(0,0)"/>
<path d="" fill="#201928" transform="translate(0,0)"/>
<path d="" fill="#201928" transform="translate(0,0)"/>
<path d="" fill="#201928" transform="translate(0,0)"/>
<path d="" fill="#201928" transform="translate(0,0)"/>
<path d="" fill="#201928" transform="translate(0,0)"/>
<path d="" fill="#201928" transform="translate(0,0)"/>
<path d="" fill="#201928" transform="translate(0,0)"/>
<path d="" fill="#201928" transform="translate(0,0)"/>
<path d="" fill="#201928" transform="translate(0,0)"/>
<path d="" fill="#201928" transform="translate(0,0)"/>
<path d="" fill="#201928" transform="translate(0,0)"/>
<path d="" fill="#201928" transform="translate(0,0)"/>
<path d="" fill="#201928" transform="translate(0,0)"/>
<path d="" fill="#201928" transform="translate(0,0)"/>
<path d="" fill="#201928" transform="translate(0,0)"/>
<path d="" fill="#201928" transform="translate(0,0)"/>
<path d="" fill="#201928" transform="translate(0,0)"/>
<path d="" fill="#201928" transform="translate(0,0)"/>
<path d="" fill="#201928" transform="translate(0,0)"/>
<path d="" fill="#201928" transform="translate(0,0)"/>
<path d="" fill="#201928" transform="translate(0,0)"/>
<path d="" fill="#201928" transform="translate(0,0)"/>
<path d="" fill="#201928" transform="translate(0,0)"/>
<path d="" fill="#201928" transform="translate(0,0)"/>
<path d="" fill="#201928" transform="translate(0,0)"/>
<path d="" fill="#201928" transform="translate(0,0)"/>
<path d="" fill="#201928" transform="translate(0,0)"/>
</svg>
